<?xml version="1.0" standalone="no"?>
<!DOCTYPE svg PUBLIC "-//W3C//DTD SVG 1.1//EN" "http://www.w3.org/Graphics/SVG/1.1/DTD/svg11.dtd" >
<svg xmlns="http://www.w3.org/2000/svg">
  <metadata>Created by iconfont</metadata>
  <defs>
  <font id="icon-ddei-flow" horiz-adv-x="1024">
    <font-face
      font-family="icon-ddei-flow"
      font-weight="400"
      font-stretch="normal"
      units-per-em="1024"
      ascent="896"
      descent="-128"
    />
      <missing-glyph />
      
      <glyph glyph-name="chore" unicode="&#59001;" d="M168.402616-100.147095a40.439857 40.439857 0 0 0-21.209715 5.655924 42.136634 42.136634 0 0 0-21.209715 36.763506V776.803923a91.343173 91.343173 0 0 0 91.343173 91.343172h589.347282a91.343173 91.343173 0 0 0 91.343173-91.343172v-834.531588a42.41943 42.41943 0 0 0-63.346349-37.046303L512 89.609155l-322.670465-184.383123a41.853838 41.853838 0 0 0-20.926919-5.373127zM512 180.952328a39.591468 39.591468 0 0 0 20.926919-5.655924L813.177954 16.364939V776.803923a6.504313 6.504313 0 0 1-6.504313 6.504312H217.326359a6.504313 6.504313 0 0 1-6.504313-6.504312V16.364939l280.251035 160.06265a39.591468 39.591468 0 0 0 20.926919 4.524739z"  horiz-adv-x="1024" />
      
      <glyph glyph-name="link" unicode="&#59003;" d="M237.197505-120.960896a229.253453 229.253453 0 0 0-162.890611 67.26779 231.063349 231.063349 0 0 0 0 325.781223l130.915788 130.915788a231.063349 231.063349 0 0 0 230.761699 57.011714 231.063349 231.063349 0 0 0 57.011714 230.761699l130.915788 130.915788a230.46005 230.46005 0 1 0 326.082872-325.781223l-131.217437-130.915788a231.364998 231.364998 0 0 0-230.761699-57.011714 231.063349 231.063349 0 0 0-57.011714-230.761699l-130.915788-130.915788a229.856752 229.856752 0 0 0-162.890612-67.26779z m-98.940964 131.217437a140.568565 140.568565 0 0 1 197.881928 0l130.915788 130.915788a140.568565 140.568565 0 0 1 26.545137 160.477417L426.029955 233.17536A45.247392 45.247392 0 0 0 361.17536 298.029955l67.569439 67.569439a140.266915 140.266915 0 0 1-158.064223-26.846786l-130.915788-130.614139a140.568565 140.568565 0 0 1 0-197.881928z m456.093713 392.144065a139.663617 139.663617 0 0 1 160.477417 26.846786l130.915788 130.614139a139.965266 139.965266 0 0 1-197.881928 197.881928L556.945743 625.319424a140.568565 140.568565 0 0 1-26.545137-160.477417L572.329856 507.676205a45.247392 45.247392 0 0 0 63.346349-63.346349z m192.452241-5.429687z"  horiz-adv-x="1024" />
      
      <glyph glyph-name="sequence" unicode="&#59278;" d="M1015.019832 808.299247s-314.673698-160.560156-474.516846-235.637364c34.241661-31.269897 66.090969-64.996646 99.132421-97.503837-162.510696-164.678917-325.023541-329.355145-487.533698-494.03406 11.917154-11.373217 23.82517-22.740522 35.742862-34.11374 162.510158 164.679454 325.023541 329.338483 487.533697 494.017399 33.102726-32.985554 66.018408-66.15708 99.13296-99.132421 85.377064 168.141942 240.508605 466.404023 240.508604 466.404023z"  horiz-adv-x="1192" />
      
      <glyph glyph-name="comment" unicode="&#59313;" d="M709.657513 807.570194v-839.866893h263.074931v47.43722h-215.637241V760.117922h215.637241V807.570194h-263.074931z m-77.602518-371.518251l-72.648666-57.522268 57.522269-72.648195 72.648195 57.507215-57.521798 72.663248z m-145.311443-115.044066L414.094416 263.486078l57.522268-72.648665L544.26535 248.360152l-57.521798 72.648195z m-145.296861-115.043597l-72.648665-57.522268 57.521798-72.648195 72.648665 57.521798-57.521798 72.648665zM196.134778 90.919743L123.486583 33.398415l57.521798-72.648665 72.648665 57.522269-57.521798 72.648195z"  horiz-adv-x="1106" />
      
      <glyph glyph-name="group" unicode="&#58888;" d="M187.755566 847.753646H355.868062v-72.757807H187.755566z m235.878007 0h169.929095v-72.757807h-169.929095z m232.360441 0h169.929095v-72.757807h-169.929095z m244.526962 0h169.929095v-72.757807h-169.929095z m245.053172 0h169.929095v-72.757807h-169.929095z m243.514761 0h169.930771v-56.368196h-169.929095z m234.381491 0h318.216529v-72.757807h-318.214853z m-1435.714834-831.563275H355.868062V-56.748425H187.755566z m235.878007 0h169.929095V-56.748425h-169.929095z m232.360441 0h169.929095V-56.748425h-169.929095z m244.526962 0h169.929095V-56.748425h-169.929095z m245.053172 0h169.929095V-56.748425h-169.929095z m243.514761 0h169.930771V-56.748425h-169.929095z m234.381491 0h318.216529V-56.748425h-318.214853zM1941.705363 140.707842v-141.109857h-72.898576v141.109857z m-0.018434 162.756545v-113.07826h-72.898576v113.076584z m0.02011 162.75487v-113.078261h-72.898576v113.078261z m-0.02011 155.964409v-113.078261h-72.898576v113.078261z m0 169.201784v-113.07826h-72.898576v113.07826zM195.254903 140.707842V-56.748425h-72.657257V140.707842z m0 162.756545v-113.07826h-72.657257v113.076584z m0.02011 162.773304v-113.076585h-72.657257v113.078261z m-0.02011 155.945975v-113.078261h-72.657257v113.078261z m0 225.56998V671.131289h-72.657257V847.753646z"  horiz-adv-x="2048" />
      
      <glyph glyph-name="lock" unicode="&#59029;" d="M818.552199-116.683732H205.447801a95.319494 95.319494 0 0 0-95.025297 94.14271V489.359962a95.319494 95.319494 0 0 0 95.025297 95.319494h58.839194v62.075349a248.301397 248.301397 0 1 0 496.602794 0v-62.075349h58.839194a95.319494 95.319494 0 0 0 95.025297-95.319494V-22.541022a95.319494 95.319494 0 0 0-96.202081-94.14271zM205.447801 496.420666a6.766507 6.766507 0 0 1-6.766507-7.060704V-22.541022a6.766507 6.766507 0 0 1 6.766507-7.060703h613.104398a6.766507 6.766507 0 0 1 6.766507 7.060703V489.359962a6.766507 6.766507 0 0 1-6.766507 7.060704z m147.097984 88.25879h319.496822v62.075349a160.042607 160.042607 0 1 1-320.085214 0zM512 87.782466a44.129395 44.129395 0 0 0-44.129395 44.129395v15.298191a120.620347 120.620347 0 1 0 88.25879 10.002662v-25.300853a44.129395 44.129395 0 0 0-44.129395-44.129395z m-12.650427 208.584941a32.655752 32.655752 0 1 1 32.361557-32.655752 32.655752 32.655752 0 0 1-32.361557 32.655752z"  horiz-adv-x="1024" />
      
      <glyph glyph-name="unlock" unicode="&#59097;" d="M818.552199-116.683732H205.447801a95.319494 95.319494 0 0 0-95.025297 94.14271V489.359962a95.319494 95.319494 0 0 0 95.025297 95.319494h58.839194v62.075349a248.301397 248.301397 0 0 0 470.713549 110.323488 44.129395 44.129395 0 1 0-79.138716-39.128063 160.042607 160.042607 0 0 1-303.610239-71.195425v-62.075349h466.30061a95.319494 95.319494 0 0 0 95.025297-95.319494V-22.541022a95.319494 95.319494 0 0 0-95.025297-94.14271zM205.447801 496.420666a6.766507 6.766507 0 0 1-6.766507-7.060704V-22.541022a6.766507 6.766507 0 0 1 6.766507-7.060703h613.104398a6.766507 6.766507 0 0 1 6.766507 7.060703V489.359962a6.766507 6.766507 0 0 1-6.766507 7.060704zM512 87.782466a44.129395 44.129395 0 0 0-44.129395 44.129395v15.298191a120.620347 120.620347 0 1 0 88.25879 10.002662v-25.300853a44.129395 44.129395 0 0 0-44.129395-44.129395z m-12.650427 208.584941a32.655752 32.655752 0 1 1 0-65.017309 32.655752 32.655752 0 0 1 0 65.017309z"  horiz-adv-x="1024" />
      
      <glyph glyph-name="edit" unicode="&#59023;" d="M754.600631 437.534058a40.150543 40.150543 0 0 0-40.150544 40.150543v187.369203a6.156417 6.156417 0 0 1-6.156417 6.156417h-139.456221a40.150543 40.150543 0 0 0 0 80.301087H709.632022a86.457504 86.457504 0 0 0 86.457504-86.457504v-187.369203a40.150543 40.150543 0 0 0-41.488895-40.150543zM709.632022-74.251536H150.736457a86.725174 86.725174 0 0 0-86.725174 86.457503V662.912442a86.725174 86.725174 0 0 0 86.725174 86.457504h139.18855a40.150543 40.150543 0 0 0 0-80.301087h-139.18855a6.156417 6.156417 0 0 1-6.424087-6.156417v-650.706475a6.156417 6.156417 0 0 1 6.424087-6.156416H709.632022a6.156417 6.156417 0 0 1 6.156417 6.156416v186.030852a40.150543 40.150543 0 0 0 80.301087 0v-187.369203A86.457504 86.457504 0 0 0 709.632022-74.251536zM698.92521 111.511645h-130.087761a40.150543 40.150543 0 0 0-40.150543 40.150543v130.087761a40.150543 40.150543 0 0 0 11.777493 28.373051l228.055087 228.055087a86.725174 86.725174 0 0 0 121.522311 0l65.311551-65.311551a86.992844 86.992844 0 0 0 0-121.254641l-228.590427-228.322757a40.150543 40.150543 0 0 0-27.837711-11.777493z m-89.937217 80.301087H682.864993l216.277594 216.277594a6.424087 6.424087 0 0 1 0 8.565449l-65.04388 64.776211a6.156417 6.156417 0 0 1-8.56545 0l-216.009924-216.009924z m-40.150544 384.374536H289.925007a40.150543 40.150543 0 0 0-40.150543 40.150544v139.456221a86.725174 86.725174 0 0 0 86.725174 86.457503H522.262819a86.725174 86.725174 0 0 0 86.725174-86.457503v-139.456221a40.150543 40.150543 0 0 0-40.150544-40.150544z m-238.761898 80.301087h198.611355v99.305678a6.156417 6.156417 0 0 1-6.424087 6.156416h-185.763181a6.156417 6.156417 0 0 1-6.424087-6.156416z"  horiz-adv-x="1024" />
      
      <glyph glyph-name="cancel" unicode="&#59031;" d="M69.313855-113.700993a53.18102 53.18102 0 0 0-38.87716 16.137688 54.648083 54.648083 0 0 0 0 77.754319L915.44222 865.563305A55.014848 55.014848 0 0 0 993.563305 787.44222L108.55778-97.563305a54.281317 54.281317 0 0 0-39.243925-16.137688zM954.686145-113.700993a53.914551 53.914551 0 0 0-39.243925 16.137688L30.436695 787.44222A55.014848 55.014848 0 0 0 108.55778 865.563305L993.563305-19.44222a54.648083 54.648083 0 0 0 0-77.754319 53.18102 53.18102 0 0 0-38.87716-16.504454z"  horiz-adv-x="1024" />
      
      <glyph glyph-name="ok" unicode="&#59033;" d="M381.751462 45.778854a44.934228 44.934228 0 0 0-32.182623 13.358825L24.402908 384a45.541447 45.541447 0 0 0 64.365245 64.365245l292.983309-292.983309L935.231847 708.862321a45.541447 45.541447 0 0 0 64.365245-64.365245L413.934084 59.137679a44.023399 44.023399 0 0 0-32.182622-13.358825z"  horiz-adv-x="1024" />
      
      <glyph glyph-name="left" unicode="&#59088;" d="M341.1968 354.304l289.792-253.3376A39.3216 39.3216 0 0 1 696.32 130.6624V637.3376a39.3216 39.3216 0 0 1-65.3312 29.696L341.1968 413.696a39.3216 39.3216 0 0 1 0-59.392z"  horiz-adv-x="1024" />
      
      <glyph glyph-name="right" unicode="&#59090;" d="M682.8032 413.696L393.0112 667.0336A39.3216 39.3216 0 0 1 327.68 637.3376v-506.6752a39.3216 39.3216 0 0 1 65.3312-29.696l289.792 253.3376a39.3216 39.3216 0 0 1 0 59.392z"  horiz-adv-x="1024" />
      
      <glyph glyph-name="setting" unicode="&#59044;" d="M578.24224-128h-106.24a101.12 101.12 0 0 0-100.8 101.12v33.6a4.8 4.8 0 0 1-3.2 4.48l-5.12 1.92a4.8 4.8 0 0 1-5.76 0l-21.76-21.76A101.44 101.44 0 0 0 192.00224-9.6L117.44224 64a101.44 101.44 0 0 0 0 143.04l21.76 21.76a5.12 5.12 0 0 1 0 5.44 15.04 15.04 0 0 0-1.92 4.8 5.76 5.76 0 0 1-4.8 3.2h-32A101.44 101.44 0 0 0 0.00224 344.32v105.92a101.44 101.44 0 0 0 101.12 101.12h32a4.8 4.8 0 0 1 4.48 3.2l1.92 5.12a4.48 4.48 0 0 1 0 5.44l-21.76 22.08a98.24 98.24 0 0 0-29.76 71.68 99.84 99.84 0 0 0 29.76 71.36L192.00224 805.76a103.68 103.68 0 0 0 143.04 0l21.76-21.76a5.12 5.12 0 0 1 5.76 0l4.8 1.92a4.8 4.8 0 0 1 3.52 4.8v4.16A101.12 101.12 0 0 0 472.00224 896h106.24a101.44 101.44 0 0 0 101.12-101.12v-32a4.8 4.8 0 0 1 3.2-4.8l5.76-2.24a4.8 4.8 0 0 1 5.76 0l22.08 21.76a98.88 98.88 0 0 0 71.36 29.76 101.12 101.12 0 0 0 71.36-29.44L934.72224 704a101.12 101.12 0 0 0 0-143.04l-21.76-21.76a4.8 4.8 0 0 1 0-5.76l1.92-4.8a4.8 4.8 0 0 1 4.48-3.52h32a100.8 100.8 0 0 0 100.8-100.8v-106.24a101.12 101.12 0 0 0-100.8-101.12H915.20224a5.12 5.12 0 0 1-4.48-3.2 13.44 13.44 0 0 0-1.92-4.48 4.8 4.8 0 0 1 0-5.12l22.08-21.76a101.12 101.12 0 0 0 0-143.04l-74.24-73.92a101.12 101.12 0 0 0-142.72 0l-21.76 21.44a5.44 5.44 0 0 1-5.76 0 10.88 10.88 0 0 0-4.8-1.92 4.48 4.48 0 0 1-2.88-4.48v-8.32A101.44 101.44 0 0 0 578.24224-128z m-176.32 229.12a101.12 101.12 0 0 0 64-94.08v-33.92a5.12 5.12 0 0 1 4.8-5.12h106.24a5.12 5.12 0 0 1 5.12 5.12v8.64a104.96 104.96 0 0 0 177.28 72.64l21.76-21.44a5.12 5.12 0 0 1 7.04 0L864.00224 107.2a4.8 4.8 0 0 1 0 3.52 4.16 4.16 0 0 1 0 3.2l-21.76 21.76a104.64 104.64 0 0 0 72.96 176.96h34.24a5.12 5.12 0 0 1 4.8 5.12v106.24a4.8 4.8 0 0 1-4.8 4.8h-32a101.76 101.76 0 0 0-96 64 101.12 101.12 0 0 0 23.68 115.2l21.44 21.44a5.44 5.44 0 0 1 0 7.36l-75.52 75.2a4.8 4.8 0 0 1-3.52 0 4.16 4.16 0 0 1-3.2 0l-22.08-22.08a101.12 101.12 0 0 0-112.32-21.12 100.48 100.48 0 0 0-66.56 96v32a5.12 5.12 0 0 1-5.12 3.2h-106.24a5.12 5.12 0 0 1-4.8-5.12v-5.76a101.76 101.76 0 0 0-64-96A101.76 101.76 0 0 0 288.00224 716.16L267.52224 736a5.44 5.44 0 0 1-7.36 0L184.00224 662.08a4.48 4.48 0 0 1 0-3.52 4.16 4.16 0 0 1 0-3.2l22.08-22.08a101.12 101.12 0 0 0 21.12-112.64 101.44 101.44 0 0 0-94.08-64h-32a5.12 5.12 0 0 1-5.12-5.12v-105.92a5.12 5.12 0 0 1 5.12-5.12h32a101.12 101.12 0 0 0 96-64 101.12 101.12 0 0 0-22.4-116.48l-21.44-21.44a4.16 4.16 0 0 1 0-3.52 4.8 4.8 0 0 1 0-3.52l74.88-74.56a4.8 4.8 0 0 1 7.04 0L288.00224 80a101.44 101.44 0 0 0 113.92 21.12z m123.2 75.84A207.04 207.04 0 1 0 732.16224 384a207.04 207.04 0 0 0-207.04-207.04z m0 318.08A111.04 111.04 0 1 1 636.16224 384a111.04 111.04 0 0 1-111.04 111.04z"  horiz-adv-x="1052" />
      
      <glyph glyph-name="trash" unicode="&#58881;" d="M959.34602 677.798819c-3.071904 50.23843-44.382613 90.109184-95.35702 90.109184l-95.997 0 0 32.062998c0 53.022343-43.006656 95.997-95.997 95.997l-319.99 0c-53.022343 0-95.997-42.974657-95.997-95.997l0-32.030999-95.997 0c-51.038405 0-92.317115-39.870754-95.389019-90.109184l-0.607981 0 0-69.853817c0-35.326896 28.671104-63.998 63.998-63.998l0 0 0-543.983001c0-70.685791 57.310209-127.996 127.996-127.996l511.984 0c70.685791 0 127.996 57.310209 127.996 127.996l0 543.983001c35.326896 0 63.998 28.671104 63.998 63.998l0 69.821818-0.63998 0zM320.006 799.939002c0 17.695447 14.303553 31.999 31.999 31.999l319.99 0c17.695447 0 31.999-14.303553 31.999-31.999l0-31.999-383.988 0 0 31.999zM831.99-0.035999c0-35.262898-28.735102-63.998-63.998-63.998l-511.984 0c-35.294897 0-63.998 28.735102-63.998 63.998l0 543.983001 639.980001 0 0-543.983001zM895.988 639.976001l0-31.999-767.976001 0 0 63.966001c0 17.695447 14.303553 31.999 31.999 31.999l703.978001 0c17.695447 0 31.999-14.303553 31.999-31.999l0-31.967001zM288.007-0.163995l63.998 0c17.695447 0 31.999 14.303553 31.999 31.999l0 415.987c0 17.695447-14.303553 31.999-31.999 31.999l-63.998 0c-17.695447 0-31.999-14.303553-31.999-31.999l0-415.987c0-17.695447 14.303553-31.999 31.999-31.999zM288.007 447.854005l63.998 0 0-415.987-63.998 0 0 415.987zM480.001-0.163995l63.998 0c17.695447 0 31.999 14.303553 31.999 31.999l0 415.987c0 17.695447-14.303553 31.999-31.999 31.999l-63.998 0c-17.695447 0-31.999-14.303553-31.999-31.999l0-415.987c0-17.695447 14.303553-31.999 31.999-31.999zM480.001 447.854005l63.998 0 0-415.987-63.998 0 0 415.987zM671.995-0.163995l63.998 0c17.695447 0 31.999 14.303553 31.999 31.999l0 415.987c0 17.695447-14.303553 31.999-31.999 31.999l-63.998 0c-17.695447 0-31.999-14.303553-31.999-31.999l0-415.987c0-17.695447 14.303553-31.999 31.999-31.999zM671.995 447.854005l63.998 0 0-415.987-63.998 0 0 415.987z"  horiz-adv-x="1024" />
      
      <glyph glyph-name="tab" unicode="&#59399;" d="M960 896l64 0 0-512-64 0 0 512zM0 384l64 0 0-512-64 0 0 512zM320 192l704 0 0-128-704 0 0-160-224 224 224 224 0-160zM704 576l-704 0 0 128 704 0 0 160 224-224-224-224z"  horiz-adv-x="1024" />
      
      <glyph glyph-name="start-event-non-inte" unicode="&#59304;" d="M545.145827 622.761988c-56.232203-156.482219-91.923107-319.473396-148.155311-475.955034 51.589422 51.28672 96.568212 108.740188 148.155311 160.029813l148.15531-160.029813c-50.325164 158.357691-97.830147 317.596762-148.15531 475.955034z m1.076596-98.477382c27.629513-86.942184 53.711238-174.367181 81.34017-261.308784l-81.34017 87.859005c-22.923984-20.102642-82.455693-96.999896-78.637354-80.305989 29.299892 83.611885 48.686159 170.35769 78.637354 253.755768z m3.39537 395.786744c-50.751037-0.532198-102.708233-4.662534-150.984786-20.644717-28.719471-14.841676-8.968335-62.563373 21.876439-53.026819 76.147762 19.486781 156.478152 20.021301 233.415495 4.840902 31.403116-2.138084 40.672409 46.753749 10.661954 56.2537-37.569282 8.770214-76.431872 12.147574-114.96852 12.576934z m297.979837-93.35818c-31.312479 3.354119-42.439814-43.344434-14.289725-55.971335 62.630188-45.87237 108.303275-110.877691 145.284002-178.016448 20.733029-24.804104 63.015392 4.854846 46.999513 32.887574-39.798583 76.489972-94.418508 147.365148-165.499359 197.169154-3.703883 2.448921-8.159581 3.37794-12.494431 3.931055zM227.500842 812.501298c-24.679188-2.613924-40.213418-25.605305-58.323807-40.544007-42.436329-42.00174-76.119875-92.123553-105.331454-143.937242-10.391788-17.943642-23.833251-44.735931-1.015009-59.425967 20.676671-14.515734 43.096346 4.438849 48.632708 24.960975 26.746391 49.576834 58.675313 97.159672 98.615079 137.139527 14.484361 18.426454 43.440299 27.630094 45.042119 53.623507-0.281205 14.783576-12.847679 27.603367-27.620217 28.183207zM1053.783342 440.130647c-25.930085 1.13179-33.766629-27.533648-29.355086-48.300956 4.376682-80.500043-15.838674-161.224932-54.273648-231.818903-11.088989-29.459667 33.06536-52.408634 50.802746-26.403601 48.986536 86.308893 70.141952 188.574984 59.217969 287.059919-3.604532 11.223782-14.712693 19.060325-26.391981 19.463541zM38.823603 417.757452c-26.013749 1.997482-34.696812-26.376293-30.43575-47.308024 3.94616-80.976464 24.618764-161.65255 62.447754-233.443965 17.749587-25.995737 61.892898-3.031665 50.79287 26.423935-35.771082 71.586322-55.092278 151.07368-56.223488 231.077547-2.513411 12.617603-13.737192 22.438267-26.580806 23.250507z m825.904849-397.21194c-25.632611-3.322165-41.81001-28.068169-64.527739-39.006678-50.889316-33.680641-108.82269-54.856973-167.346942-70.309281-29.032631-14.222328-10.305799-62.357699 20.735933-53.483486 84.946444 19.425194 165.700965 58.856585 232.367951 115.006286 15.73758 17.525902 2.339692 47.71182-21.229785 47.793159z m-644.049145-1.421709c-28.429551-0.043575-37.6727-41.268516-13.297956-54.711142 55.960875-47.101768 123.282067-78.923206 193.615169-97.90161 20.792291-5.973854 49.823178-18.966785 63.644036 5.945967 11.911686 21.126947-7.615183 43.598912-29.262126 44.603463-66.273066 17.308026-131.488128 43.176525-184.841471 87.167613-8.741744 7.156773-17.5596 15.861333-29.857652 14.895709z"  horiz-adv-x="1090" />
      
      <glyph glyph-name="service-task" unicode="&#59305;" d="M219.9808 788.48C110.046208 788.48 20.48 699.291648 20.48 589.568v-411.136c0-109.723648 89.566208-198.912 199.5008-198.912h584.0384c109.934592 0 199.5008 89.188352 199.5008 198.912v411.136c0 109.723648-89.566208 198.912-199.5008 198.912H219.9808z m0-61.44h584.0384C881.094144 727.04 942.08 666.201088 942.08 589.568v-411.136c0-76.633088-60.985856-137.472-138.0608-137.472H219.9808C142.905856 40.96 81.92 101.798912 81.92 178.432v411.136C81.92 666.201088 142.905856 727.04 219.9808 727.04z m37.448192-51.643904c-0.014848-11.862016 0.003584-23.725056 0.033792-35.587072-10.116096-2.86208-19.359744-6.85568-28.089856-11.74784l-25.515008 25.207808-47.70816-47.98464 25.512448-25.2032a126.1696 126.1696 0 0 1-11.462144-27.971072l-36.140032-0.06656V484.46464l36.516864 0.131072c3.339264-13.24032 10.607616-25.143808 17.846272-35.787264V507.102208l-31.921152-0.114176v22.654976l31.76192 0.056832 1.783296 9.03168c2.599936 13.172736 7.74912 25.729024 15.147008 36.964352l5.060608 7.686144-22.316032 22.045184 16.06144 16.1536 22.355968-22.086656 7.607808 5.076992c11.626496 7.670784 24.34304 12.811776 37.023744 15.490048l8.964096 1.860608-0.080896 31.030272h23.072768l-0.177664-30.86848h60.541952c-5.679104 6.77888-29.21472 15.60064-37.99552 18.05824l0.2048 35.253248c-25.136128 0.000512-44.842496-0.001024-68.08832 0.001024zM321.28 610.742784l0.093184-35.585024c-10.11712-2.86208-19.36128-6.85568-28.091392-11.748864l-25.515008 25.20832-47.708672-47.985152 25.51296-25.2032a126.162944 126.162944 0 0 1-11.463168-27.97056l-36.139008-0.065536v-67.580928l36.516864 0.131072c2.874368-10.021376 6.859264-19.172864 11.742208-27.81184l-26.12736-26.02496 48.24064-47.4112 26.033664 25.912832a126.682112 126.682112 0 0 1 28.224-11.471872l0.016896-36.777984c23.209472-0.203264 47.919616-0.097792 67.755008-0.095744v37.212672c10.124288 2.854912 19.39712 6.877696 28.12928 11.76832l26.012672-25.648128 47.740416 47.924736-26.066944 25.688064a126.455808 126.455808 0 0 1 11.476992 28.020224l35.387904 0.219136V488.962048l-35.785216-0.217088c-2.876416 10.031104-6.803968 19.119616-11.751936 27.815936l24.726016 24.788992-48.212992 47.492096-24.69376-24.778752a127.807488 127.807488 0 0 1-28.11136 11.425792l0.203264 35.25376H321.28z m22.500864-22.443008h23.07328l-0.178176-30.86848 9.113088-1.788416c13.232128-2.596352 25.915392-7.739392 37.195776-15.091712l7.638016-4.9792 21.55008 21.622784 16.228864-15.98464-21.5808-21.636096 5.193216-7.664128c7.61856-11.501056 12.672512-23.933952 15.525888-36.736l1.876992-8.979968 31.188992 0.18944v-22.631424l-31.014912-0.190976-1.781248-8.98048a104.07424 104.07424 0 0 0-15.164928-36.998656l-5.06624-7.69536 22.846464-22.514688-16.058368-16.119808-22.848 22.528-7.596032-5.04576c-11.63008-7.60064-24.244736-12.864-36.973056-15.45728l-9.024-1.80224v-32.77056c-6.168576-0.01536-12.89728-0.00512-22.880768 0.008704l-0.01536 32.525312-9.063424 1.769984c-13.25056 2.587648-25.91232 7.706624-37.173248 15.089664l-7.616 4.994048-22.936064-22.831104-16.230912 15.952384 22.96832 22.87872-5.241344 7.696384c-7.62624 11.475456-12.670976 23.921664-15.52896 36.708864l-1.875968 8.952832-31.921152-0.113664v22.653952l31.76192 0.057856 1.783296 9.031168a103.783424 103.783424 0 0 0 15.147008 36.964864l5.06112 7.686144L251.84768 540.7744l16.059904 16.1536 22.356992-22.086656 7.60832 5.075968c11.640832 7.62112 23.994368 12.67712 37.023744 15.490048l8.964096 1.86112-0.080384 31.030784z m11.915264-82.460672c-27.779584 0-50.540032-22.761472-50.540032-50.541056 0-27.779584 22.760448-50.53952 50.53952-50.53952 27.780096 0 50.540544 22.759936 50.540544 50.53952 0 27.779584-22.760448 50.541056-50.540032 50.541056z m0-22.443008c15.650816 0 28.098048-12.447232 28.098048-28.09856 0-15.650304-12.447232-28.096512-28.09856-28.096512-15.650304 0-28.096512 12.446208-28.096512 28.097024s12.446208 28.098048 28.097024 28.098048z"  horiz-adv-x="1024" />
      
      <glyph glyph-name="start-event-signal" unicode="&#59306;" d="M539.224031 919.65936c-208.561654 2.828931-409.517764-131.395614-488.627476-324.055286-82.630681-189.294655-39.696761-424.444471 104.844722-572.076334 139.017787-149.640896 368.064819-204.564801 559.891979-134.549062 198.804884 67.697667 345.574421 262.935713 353.552647 473.068933 13.38209 206.482672-108.097933 412.483726-294.104402 502.426394C701.946005 900.82123 620.611679 919.775751 539.224031 919.65936z m0-57.335434c205.996467 3.582892 401.912218-144.391263 455.098287-343.399115 55.632571-187.434121-19.617319-404.447018-181.126649-515.459312C645.424736-119.849259 396.630807-110.927866 238.199815 24.194552c-159.629875 127.273197-216.769796 362.690195-134.868995 549.377808C174.316675 746.159469 352.50431 864.514713 539.224031 862.323926z m0-224.683232l-225.594865-404.931502h451.18973L539.224031 637.640694z m0-58.904132l176.808144-317.359654h-353.616289L539.224031 578.736562z"  horiz-adv-x="1078" />
      
      <glyph glyph-name="send-task" unicode="&#59307;" d="M219.9808 788.48C110.046208 788.48 20.48 699.291648 20.48 589.568v-411.136c0-109.723648 89.566208-198.912 199.5008-198.912h584.0384c109.934592 0 199.5008 89.188352 199.5008 198.912v411.136c0 109.723648-89.566208 198.912-199.5008 198.912H219.9808z m0-61.44h584.0384C881.094144 727.04 942.08 666.201088 942.08 589.568v-411.136c0-76.633088-60.985856-137.472-138.0608-137.472H219.9808C142.905856 40.96 81.92 101.798912 81.92 178.432v411.136C81.92 666.201088 142.905856 727.04 219.9808 727.04z m-42.390016-97.073152l255.963136-144.896 255.962112 144.896H177.590784z m0.638464-53.617664v-285.963264h511.924736V576.349184l-256.600064-142.98112-255.324672 142.98112z"  horiz-adv-x="1024" />
      
      <glyph glyph-name="sub-process-marker" unicode="&#59308;" d="M153.6 742.4v-716.8h716.8V742.4z m45.056-45.056h626.688v-626.688H198.656z m267.264-108.544v-158.72H307.2v-92.16h158.72v-158.72h92.16v158.72h158.72V430.08h-158.72V588.8z"  horiz-adv-x="1024" />
      
      <glyph glyph-name="start-event-multiple" unicode="&#59309;" d="M539.343574 919.076027c-208.561654 2.828931-409.517764-131.395614-488.627476-324.055286-82.630681-189.294655-39.696761-424.444471 104.844722-572.076334 139.017787-149.640896 368.064819-204.564801 559.891979-134.549062 198.804884 67.697667 345.574421 262.935713 353.552647 473.068932 13.38209 206.482672-108.097933 412.483726-294.104402 502.426395C702.065549 900.237897 620.731223 919.192418 539.343574 919.076027z m0-57.335434c205.996467 3.582892 401.912218-144.391263 455.098287-343.399116 55.632571-187.434121-19.617319-404.447018-181.126649-515.459311C645.544279-120.432592 396.75035-111.511199 238.319358 23.611219c-159.629875 127.273197-216.769796 362.690195-134.868995 549.377808C174.436218 745.576136 352.623853 863.931379 539.343574 861.740593z m0-209.820741C455.062779 590.73893 370.784279 529.555716 286.504631 468.373647l96.575231-296.978627h312.52513l96.575806 296.978627-252.836077 183.546205z m0-35.420111l219.123415-159.071428-83.696547-257.381057H403.918999c-27.899995 85.793877-55.798844 171.587753-83.697693 257.381057l219.121121 159.071428z"  horiz-adv-x="1078" />
      
      <glyph glyph-name="start-event-non-inte1" unicode="&#59310;" d="M545.484095 636.434276l-228.601406-410.325887h457.202811L545.484095 636.434276z m0-59.687843l179.16346-321.588342H366.321797C426.042176 362.354399 485.763717 469.550706 545.484095 576.746433z m4.471911 343.325652c-52.834437-7.927664-141.079299 9.567229-164.814649-46.458608 20.832123-57.253477 92.347842-2.293184 137.417875-12.247354 47.776303 4.36036 95.466618-6.755218 142.407451-8.709682 57.500981 54.040581-46.100716 68.818164-86.072526 66.503483-9.637529 0.513018-19.287259 0.805258-28.938151 0.912161z m297.976161-93.357029c-73.69619-23.346665 13.473251-75.999832 39.709201-104.061844 36.392886-38.72732 65.697646-83.506856 91.282881-129.923633 49.77376-33.816178 62.040869 42.378868 27.251525 68.271449-38.950423 63.799538-87.868959 124.569192-151.760294 164.459082l-6.483313 1.254946zM227.843027 812.503361c-60.282781-23.950899-97.813835-85.688488-134.827222-136.596349-26.021561-27.34739-74.376534-122.827952 0.152801-107.966125 37.778557 49.391466 62.861232 111.182508 109.85668 155.173053 22.333411 23.554661 91.799965 67.684063 24.81716 89.389421zM1054.115337 440.137302c-55.778334-14.60619-15.722861-89.685147-33.299674-130.97349-7.741165-52.184886-25.118696-102.835946-50.328029-149.142915-7.74407-55.795763 66.961888-39.191535 67.859523 6.671555 36.694422 78.744448 51.71428 167.586572 42.160415 253.981549-3.569046 11.199241-14.770612 19.090302-26.392235 19.463301zM39.168114 417.764383c-56.38431-12.978245-21.251019-89.689214-20.419036-130.357636 12.482077-54.579162 26.638577-112.647193 60.164258-157.926964 80.116175-10.812299 19.233227 78.634058 9.847849 117.437489-14.498125 47.805353-22.307847 97.643022-23.011431 147.596891-2.41345 12.51403-13.857871 22.525139-26.58164 23.25022z m825.894663-397.207041c-59.0197-29.069457-111.077929-76.171806-177.375741-92.944523-39.060229 0.520571-103.371623-42.755352-44.753971-70.68606 89.484704 15.007076 173.626586 58.252787 243.358654 115.838593 15.873919 17.00221 2.032317 48.172541-21.229522 47.79199z m-644.041201-1.421693c-67.385434-26.417799 14.001956-80.858105 48.099335-97.966055 54.083574-30.401676 113.626168-55.017812 175.13078-63.102924 59.529813 27.011575-7.658664 70.424032-45.628949 69.708246-58.84424 18.053228-114.43956 46.92689-161.339142 86.959123l-7.637748 3.487707-8.624276 0.913903z"  horiz-adv-x="1091" />
      
      <glyph glyph-name="intermediate-event-c9" unicode="&#59311;" d="M538.858139 918.887006c-1.400935 0.001146-2.803017-0.003439-4.20395-0.013183-236.484005 1.940903-459.012543-175.586901-510.964071-406.150752-50.118963-203.089706 32.471424-431.346371 203.494395-552.743344 169.989466-125.645061 416.124675-136.154938 594.090413-20.664364 174.864078 108.673915 276.278811 323.920917 242.969348 527.914008-29.980237 206.988134-192.03069 388.048082-396.370575 435.898837-42.145557 10.547137-85.579124 15.73243-129.01556 15.758798z m-6.008428-57.183824c3.834801 0.015477 7.672468-0.020063 11.51243-0.108337 219.747304 2.218337 425.314441-170.762159 460.727026-387.73912 37.4859-196.001343-63.301165-409.550484-240.866226-502.07467-181.54546-99.911193-426.747476-62.491786-567.708815 90.42221-144.520423 149.160017-172.598163 396.52305-61.230141 572.692336 82.675223 136.413459 237.767431 226.177044 397.565726 226.808154z m9.398417-51.54512c-3.878939 0.005732-7.76017-0.047004-11.641977-0.158207-202.345101 0-387.762048-167.461593-409.498895-368.63791-25.883476-188.519753 92.705894-385.142461 272.601071-448.433307 170.429122-64.40632 378.637055-3.32808 485.022128 145.287958 114.803292 152.027806 108.199867 382.702862-19.779321 525.090929-78.249438 91.104907-196.457621 146.687745-316.703006 146.850537z m-2.576025-56.203055c2.586342-0.004013 5.17211-0.036686 7.758452-0.097446 179.107581 0 342.329682-151.13474 355.998542-329.771712 18.672445-170.162576-98.104423-343.746094-264.37717-387.320673-160.245975-46.74216-346.804191 31.001131-422.725233 180.615706-81.714517 151.212123-39.810283 358.056381 99.939854 460.485704 63.436443 49.047053 143.232411 76.208796 223.405555 76.088421zM362.161497 612.440517V165.293503H717.561031v447.147014H362.161497z m28.595924-28.700823h298.098202v-389.739636H390.756849v389.739636z m30.763248-43.874369v-28.594779h236.572853v28.594779H421.520669z m0-86.329462v-28.705408h236.572853v28.705408H421.520669z m0-99.761585v-28.599937h236.572853v28.599937H421.520669z m0-90.121845v-28.601657h236.572853v28.601657H421.520669z"  horiz-adv-x="1079" />
      
      <glyph glyph-name="business-rule" unicode="&#59312;" d="M91.18976 699.904v-631.808h841.62048V699.904H91.18976z m35.84-214.016H289.28v-176.351232H127.02976V485.888zM325.12 485.888h571.85024v-176.351232H325.12V485.888z m-198.09024-212.191232H289.28V103.936H127.02976v169.760768z m198.09024 0h571.85024V103.936H325.12v169.760768z"  horiz-adv-x="1024" />
      
      <glyph glyph-name="intermediate-event-c10" unicode="&#59314;" d="M539.021252 918.882208c-258.12681 5.285478-498.995558-206.914426-525.846016-463.87694-28.374762-217.323149 90.936592-446.551234 289.982993-541.260464 187.95263-94.444956 431.674505-66.001977 587.551965 77.329065 157.413803 138.057603 223.181889 372.975889 150.355226 570.837932-66.957031 195.020954-254.227479 343.545752-461.359172 355.428332a544.722396 544.722396 0 0 1-40.684996 1.542075z m-6.008935-57.188643c236.695973 8.914228 459.155552-188.458821 477.702879-424.80453 22.779149-208.441596-108.369497-424.382037-307.949606-493.078346-194.010293-71.738612-432.157765-1.974888-549.332571 170.56616-120.263542 168.457127-115.487122 417.117083 20.969934 575.158608 87.337652 105.20165 221.345156 171.646185 358.609364 172.158682z m9.399208-51.549461c-218.959239 6.963417-420.401876-185.266897-424.357386-404.238175-9.652017-197.871787 136.998214-392.055777 332.904859-429.740891 181.520054-39.737393 384.340241 53.519191 465.326719 222.356964 83.757629 164.896022 46.298953 384.33852-96.609595 504.790667-75.721065 67.073977-175.879154 106.717355-277.264024 106.831435z m-2.57624-56.207792c193.021989 5.111206 368.818019-168.601016 365.722401-361.812181 3.412056-178.613614-140.346639-348.369753-319.684856-366.37764-168.375723-22.107859-345.903007 85.857489-394.310992 250.575225-50.741735 156.939715 15.922933 345.961479 162.155256 426.766807 56.066769 33.033091 121.015089 50.95155 186.118191 50.848363zM408.588611 622.996334L305.845682 520.253405l132.211475-132.213194-129.823264-129.824411 101.111997-101.112569 129.825557 129.824983 132.288864-132.289437 102.742929 102.742927-132.289438 132.288865 129.828422 129.82957-101.111996 101.111997c-43.276714-43.275567-86.552855-86.551708-129.828423-129.82785L408.588611 622.996334z m-0.072805-40.518177l132.288864-132.288865 129.824984 129.823264 60.590954-60.590954-129.82441-129.823837 132.213194-132.212621-62.147361-62.147361-132.212621 132.21262-129.82441-129.824983-60.591527 60.591527 129.824983 129.824984-132.288864 132.288864 62.146214 62.147362z"  horiz-adv-x="1079" />
      
      <glyph glyph-name="intermediate-event-c11" unicode="&#59315;" d="M801.96444 464.562443l-256.717225 186.362294C459.673643 588.805524 374.101235 526.683983 288.528827 464.562443l98.057842-301.535434h317.321675L801.96444 464.562443z m-34.232923-11.1133L682.751159 192.118938H407.74269L322.761749 453.449725l222.484302 161.511932 222.485466-161.512514zM545.246634 922.185306c-48.778595-0.699166-98.645817-5.285949-144.872254-21.139137-28.682675-15.051564-8.592578-62.742116 22.252795-52.993966 75.904011 20.469662 156.483876 20.429494 233.05329 3.622738 31.438006-2.534694 41.332859 46.332389 11.38633 56.227824-39.703995 9.967623-80.922753 14.094505-121.820161 14.282541z m303.426847-98.791355c-30.730689 3.520279-42.840635-42.355701-15.281514-55.474519 61.723349-45.776433 110.850071-107.238395 145.124325-175.781664 17.67882-26.120038 62.002782-3.289164 51.000674 26.269651-38.260256 80.324299-97.497229 151.16358-170.396168 202.232949-3.349708 1.486236-6.8141 2.344912-10.447317 2.753583zM230.02653 811.816093c-25.65548-2.985281-41.753173-27.241265-60.791321-42.650854-49.300204-48.451425-90.303565-106.114839-116.963842-169.996228-8.958752-30.241099 36.822921-49.994131 52.674364-22.727251 32.494613 73.057284 83.08254 137.523737 145.670385 187.18837 16.016774 17.33535 3.022538 47.767978-20.589586 48.185963z m315.220104-0.239847c-23.518979-2.2279-56.879254 5.418097-68.478652-21.375493-9.476286-24.67397 18.036263-45.717636 40.975417-37.864973 60.829161 4.92385 122.266673-6.841462 178.245919-30.54673 30.347634-8.589085 49.53947 37.428942 22.081642 52.946811-53.880584 24.764786-113.612969 36.666321-172.824326 36.840385z m-184.483105-45.949333c-28.128466-5.083359-51.0781-25.58504-74.430583-41.275808-40.502127-31.637102-78.039932-69.41126-102.907177-114.568864-11.139497-30.415745 35.774463-52.252885 52.079985-24.314199 35.180085 55.742309 87.386978 98.471171 144.258082 130.377809 18.351207 16.796859 5.780197 49.265275-19.000307 49.781062z m468.107438-71.224665c-29.4517 2.34724-41.094176-39.488016-16.882435-54.784086 44.62901-45.129661 73.694742-103.073672 92.53321-162.960328 15.747237-28.306023 62.930734-7.056276 52.434516 23.541683-20.333438 71.296271-58.963944 137.951037-112.83987 189.066395-4.563496 3.025449-9.790648 4.767832-15.245421 5.136336zM156.517496 490.501431c-27.674969 2.356555-33.532009-27.824-35.231896-49.0068-8.624013-64.954297-3.155269-132.392058 18.917642-194.216119 13.680594-28.418379 60.860597-12.29507 54.285761 18.551468-20.672251 62.847486-24.090653 130.72419-11.247195 195.529457 0.209575 14.814046-11.949853 28.070251-26.724312 29.141994z m898.540266-53.881166c-25.103018 1.250464-34.136285-26.432073-29.572205-46.954129 1.429767-80.567058-19.211047-160.650345-55.895998-232.132322-10.421702-29.768973 34.341784-51.729529 51.504236-25.268348 45.960393 85.736576 67.877869 184.803289 61.314677 281.901742-2.913675 12.557039-14.461261 22.043222-27.35071 22.453057zM38.325312 417.388842c-26.326121 2.465418-35.133512-26.089766-31.399001-47.246368 2.27389-81.305227 22.257454-162.729213 60.895526-234.438814 17.995512-25.901731 62.037711-2.532365 50.675832 26.889645-36.431131 71.205455-54.643204 151.115844-53.969653 231.014589-2.287861 12.685113-13.350514 22.731908-26.202704 23.780948z m901.926067-68.117716c-26.161953 1.589277-32.062655-26.860537-34.38661-46.888345-11.89746-56.965994-40.47593-108.801475-74.602899-155.151328-13.710867-29.347494 31.155079-55.132795 49.799691-28.697812 45.857934 58.364908 77.326212 128.86363 86.970739 202.599705-0.337067 14.811718-12.97619 27.612096-27.780338 28.13778zM236.983259 157.852251c-27.194693-0.619993-36.444521-37.784637-15.809529-53.552249 46.870298-54.10122 107.305925-97.176463 174.877-121.162329 30.64162-7.471351 48.138228 39.215569 20.132012 53.721074-61.808343 23.572537-116.818885 63.495421-159.033706 114.350558-5.681813 4.57514-12.880717 6.939846-20.165777 6.642364z m506.976625-90.906093c-27.292495-6.545728-50.635663-25.599012-78.293749-32.757747-40.496887-15.398528-84.147298-18.042084-126.5356-22.338372-29.24911-10.354172-19.284398-58.186769 11.660523-56.003113 74.117384 1.136363 148.550879 21.069279 211.868743 59.870355 20.346246 16.659471 7.648326 51.582244-18.699917 51.229459z m-524.168767-47.338349c-28.046964-0.292823-37.363158-41.022572-13.322569-54.476708 66.863759-53.913185 146.750279-92.540197 231.238717-108.615768 31.438006-2.535276 41.332859 46.333553 11.385166 56.226077-78.256492 16.512768-151.936098 52.432769-213.62277 103.26229-4.84002 2.559726-10.210381 3.778173-15.678544 3.603526z m646.710798-2.936962c-25.773075-3.042913-41.785192-28.331055-64.694657-38.9862-51.055977-33.39404-109.482594-53.209944-168.209601-67.518681-29.38417-13.629947-11.652955-62.24554 19.632526-54.019137 85.652163 17.714914 167.681588 55.90764 234.453367 112.596531 15.80196 17.52979 2.432817 47.801743-21.181635 47.927487z"  horiz-adv-x="1088" />
      
      <glyph glyph-name="start-event-conditio" unicode="&#59316;" d="M540.785946 916.643842c-292.551351 0-530.327082-237.769997-530.327081-530.323642s237.775157-530.329375 530.327081-530.329375 530.327082 237.77573 530.327082 530.329375c0 292.553072-237.77573 530.323641-530.327082 530.323642z m0-57.332657c261.567636 0 472.994424-211.422201 472.994425-472.990985s-211.427361-472.996717-472.994425-472.996717-472.994424 211.427934-472.994424 472.996717 211.426788 472.990984 472.994424 472.990985z m-177.734678-249.374128v-447.235434H718.520624v447.234862H363.051268z m28.601543-28.707034h298.156765v-389.816205H391.652237v389.816205z m30.769291-43.88299v-28.600396h236.619331v28.600396H422.422102z m0-86.346421v-28.711049h236.619331v28.711049H422.422102z m0-99.781185v-28.605556h236.619331v28.605556H422.422102z m0-90.139551v-28.607276h236.619331v28.607276H422.422102z"  horiz-adv-x="1078" />
      
      <glyph glyph-name="script-task" unicode="&#59318;" d="M219.9808 788.48C110.046208 788.48 20.48 699.291648 20.48 589.568v-411.136c0-109.723648 89.566208-198.912 199.5008-198.912h584.0384c109.934592 0 199.5008 89.188352 199.5008 198.912v411.136c0 109.723648-89.566208 198.912-199.5008 198.912H219.9808z m0-61.44h584.0384C881.094144 727.04 942.08 666.201088 942.08 589.568v-411.136c0-76.633088-60.985856-137.472-138.0608-137.472H219.9808C142.905856 40.96 81.92 101.798912 81.92 178.432v411.136C81.92 666.201088 142.905856 727.04 219.9808 727.04z m91.84-94.512128l-2.369024-1.406976-0.773632-0.458752c-33.49504-19.85024-56.545792-38.05184-71.76192-55.82592-15.23712-17.798656-22.6048-35.720192-22.814208-52.996096-0.416768-34.3808 24.943104-60.145664 47.442944-83.189248 22.482944-23.025664 42.538496-44.740608 44.42624-62.711808 0.962048-9.15968-1.2032-18.359808-11.191296-30.957056-9.9456-12.544-27.995648-27.569664-56.854016-44.391936l-42.605056-24.834048h262.94784l3.112448 1.80992 0.003072 0.003072c30.58176 17.82784 51.186176 34.297856 64.31488 50.85696 13.167616 16.608768 18.52416 33.985024 16.811008 50.297856-3.39456 32.32256-29.724672 55.875072-51.86048 78.545408-22.152192 22.687232-40.109056 44.086272-39.86432 64.248832 0.12288 10.17856 4.035584 21.533696 16.4096 35.987968 12.353024 14.429696 33.181696 31.311872 65.112064 50.233856v0.001024l41.825792 24.786944H311.8208zM319.232 605.88032h161.936896c-14.26176-10.633728-25.53856-20.907008-34.21696-31.043584-15.23712-17.798656-22.603264-35.720192-22.813184-52.996096-0.416768-34.381312 24.94464-60.146176 47.44448-83.189248 22.482432-23.025664 42.535936-44.740608 44.42368-62.711808 0.96256-9.15968-1.202688-18.359808-11.18976-30.957056-9.577984-12.08064-26.8032-26.496-53.85728-42.57792H288.60928c11.262464 8.78336 20.209664 17.39008 27.053056 26.021888 13.168128 16.608768 18.525696 33.984512 16.812032 50.296832-3.39456 32.32256-29.725184 55.876096-51.86048 78.54592-22.153216 22.687744-40.109056 44.08576-39.86432 64.24832 0.12288 10.17856 4.035584 21.533696 16.4096 35.987968 11.938816 13.945344 31.91296 30.21312 62.073344 48.374784z m-37.891072-45.45024v-12.30848H407.93088v12.30848H281.340928z m-4.703744-66.299392v-12.308992h130.88768v12.30848h-130.88768zM335.94368 427.831808v-12.30848h126.759936v12.30848H335.94368z m18.1248-66.299904v-12.307968h131.34848v12.30848H354.06848z"  horiz-adv-x="1024" />
      
      <glyph glyph-name="manual-task" unicode="&#59320;" d="M219.9808 788.48C110.046208 788.48 20.48 699.291648 20.48 589.568v-411.136c0-109.723648 89.566208-198.912 199.5008-198.912h584.0384c109.934592 0 199.5008 89.188352 199.5008 198.912v411.136c0 109.723648-89.566208 198.912-199.5008 198.912H219.9808z m0-61.44h584.0384C881.094144 727.04 942.08 666.201088 942.08 589.568v-411.136c0-76.633088-60.985856-137.472-138.0608-137.472H219.9808C142.905856 40.96 81.92 101.798912 81.92 178.432v411.136C81.92 666.201088 142.905856 727.04 219.9808 727.04z m136.112128-40.790016c-6.858752-0.164864-13.211136-2.745856-18.65472-6.256128l-0.009216-0.005632-0.009216-0.006144C307.177984 660.39808 203.646976 588.54912 180.8896 572.929024l-0.001024-0.001024h-0.001024c-20.558336-14.114816-34.4064-35.418624-42.368-60.6592l-0.001024-0.00512-0.001024-0.003584c-8.288256-26.35264-7.225344-55.06048-7.14496-79.102976l0.001024-0.007168v-0.006144c0.081408-18.103296 0.512-33.90208 5.208064-53.061632 0-0.001536 0.001536-0.003584 0.002048-0.00512 6.787072-27.88352 19.509248-50.049536 37.827584-65.067008 18.317824-15.01696 41.852416-22.462464 68.45952-22.544896 93.345792-0.35072 186.74688-0.47616 280.143872 0h0.015872c10.054144 0.066048 19.805696 3.913728 26.063872 11.354112 6.258176 7.43936 8.79616 17.248256 8.928256 28.091904 0.088064 6.90176-0.829952 13.410816-2.989056 19.219968h10.036736c10.312704 0 19.710464 3.380224 26.185216 9.69984 6.472192 6.317568 9.7408 14.582272 11.487744 23.172096v0.002048c2.533376 12.410368 1.191936 24.743424-3.879936 35.083776 11.657728 1.165824 21.466624 7.492608 26.944 16.025088 6.029824 9.39264 7.906304 20.467712 7.94112 31.486976 0.036864 11.508736-2.720768 22.680064-9.01888 31.737856-6.298112 9.057792-17.030144 15.703552-29.4272 15.72096h-0.005632c-4.524032 0.004096-9.382912 0.01792-14.664192 0.024064 3.328 7.26528 4.780544 15.481856 4.75392 23.985152V538.105856c-0.072704 11.427328-3.0208 22.12608-9.7152 30.363136-6.6944 8.237056-17.334272 13.229056-28.966912 13.229056-69.809664 0.124928-130.125824-0.541184-196.967936-0.359936-2.436096 0.007168-3.703808 0.031744-5.855744 0.043008 3.154944 3.172352 6.223872 6.271488 9.59488 9.624064 10.37312 10.3168 20.343296 20.038144 25.494016 26.702848 12.3136 15.847936 14.151168 37.31968 3.784704 53.112832-5.465088 8.349696-13.479936 13.99808-22.084608 15.174144a28.588032 28.588032 0 0 1-4.576256 0.254976z m0.863232-22.355968c0.245248-0.00256 0.474112-0.02048 0.68608-0.049152 1.694208-0.231424 3.508224-0.836096 6.41024-5.27104l0.004608-0.008704 0.00512-0.008192c4.052992-6.17216 3.874304-18.619904-2.75456-27.143168l-0.01024-0.014848-0.011264-0.013824c-2.410496-3.120128-13.238784-14.249472-23.57504-24.528896-10.336256-10.279424-20.163072-19.767296-25.025024-25.690112-4.70784-5.735424-2.942464-10.402304-1.708032-13.369856 1.234432-2.968064 2.589696-6.515712 9.159168-8.076288 1.921024-0.456192 2.02752-0.325632 2.642944-0.368128 0.615424-0.042496 1.252352-0.07168 2.000896-0.098816 74.62144-0.845824 153.173504 0.129024 221.902848 0.089088h0.02048c5.92896 0 8.98048-1.728512 11.61728-4.973056 2.635776-3.242496 4.657152-8.7808 4.708352-16.390144 0.020992-7.899136-1.995264-14.328832-4.756992-18.121728-2.763776-3.79648-5.631488-5.594624-11.39712-5.61152-52.38784 0.02816-104.77568 0.142848-157.163008 0.265216v-22.45888c68.519424-0.109056 137.038848-0.284672 205.55776-0.34816 5.206016-0.007168 8.146432-1.87392 11.104256-6.127616 2.957824-4.254208 5.041664-11.192832 5.017088-18.904064v-0.001024c-0.0256-8.250368-1.788416-15.415296-4.39808-19.480064-2.609664-4.06528-4.996096-5.94944-11.844096-5.996032-71.23712 0.029696-139.892224 0.183296-205.437952 0.098816v-22.44608c58.50112-0.001536 117.001216-0.083968 175.502336-0.022528 5.945344-0.155136 9.69216-2.7648 12.758016-7.9616 3.151872-5.343744 4.661248-13.598208 2.8672-22.38976v-0.008704c-1.204224-5.922304-3.132416-9.619968-5.198336-11.636224-2.06592-2.016256-4.552704-3.341824-10.569216-3.341824h-175.39072c0.021504-7.51616 0.045056-15.032832 0.068096-22.548992 44.370432-0.016384 88.743424 0.305152 133.111808 0.031744h0.006144c4.993536-0.032256 7.134208-1.27488 9.119744-3.778048 1.985536-2.503168 3.782656-7.327744 3.68384-14.998528v-0.008192c-0.090624-7.474688-1.867264-11.817984-3.682816-13.976064-1.814528-2.157056-3.89632-3.352576-9.09312-3.387904-93.297664-0.475136-186.630144-0.350208-279.938048 0h-0.00768c-22.583296 0.068608-40.42496 6.049792-54.365184 17.478144-13.939712 11.42784-24.35584 28.725248-30.280704 53.0688l-0.003072 0.008704-0.002048 0.01024c-4.110336 16.764416-4.49024 30.02368-4.570112 47.844864v0.013312c-0.08192 24.454144-0.5504 51.113984 6.114816 72.306688 6.832128 21.653504 17.880576 38.085632 33.69728 48.945152l0.001024 0.001024c23.034368 15.81056 127.182336 88.036352 156.01152 106.706944l0.001536 0.001024c2.706944 1.745408 4.950016 2.487808 6.616576 2.65216a7.204864 7.204864 0 0 0 0.785408 0.03584z"  horiz-adv-x="1024" />
      
      <glyph glyph-name="intermediate-event-c12" unicode="&#59321;" d="M544.727155 618.41829c-55.463273-154.342452-90.666134-315.104855-146.129406-469.446735 50.883978 50.585416 95.24772 107.253254 146.129406 157.841535l146.129405-157.841535c-49.637007 156.192279-96.492398 313.253883-146.129405 469.446735z m1.061874-97.130784c27.251702-85.75332 52.976781-171.982849 80.227909-257.735597l-80.227909 86.657603c-22.610517-19.827754-81.328177-95.673501-77.562051-79.207868 28.899239 82.469706 48.019842 168.027041 77.562051 250.285862zM544.727155 913.775618c-48.016404-0.688241-97.104423-5.203353-142.608548-20.808827-28.234494-14.816376-8.458314-61.761736 21.905085-52.165906 74.717971 20.149813 154.038732 20.110272 229.411706 3.566131 30.94677-2.495088 40.687011 45.60842 11.208412 55.349235-39.083599 9.811873-79.658292 13.874271-119.916655 14.059367z m298.685641-97.247687c-30.250507 3.465272-42.171227-41.693872-15.042733-54.607699 60.758888-45.061151 109.11798-105.562737 142.85668-173.034982 17.40258-25.711899 61.033956-3.237769 50.203759 25.859175-37.662419 79.069189-95.973783 148.801568-167.733635 199.072949-3.297367 1.463013-6.707626 2.308272-10.284071 2.710557zM234.432535 805.131557c-25.2546-2.938633-41.100758-26.815605-59.841424-41.984411-48.529862-47.694345-88.892523-104.456738-115.136218-167.339947-8.818767-29.768566 36.247542-49.212946 51.851296-22.372125 31.986867 71.915724 81.78433 135.374855 143.394209 184.263451 15.766503 17.064477 2.975309 47.021578-20.267863 47.433032z m310.29462-0.2361c-23.151483-2.193087-55.990485 5.333437-67.408636-21.041488-9.328214-24.288426 17.754437-45.003272 40.335154-37.273314 59.878673 4.846911 120.356191-6.73456 175.460731-30.06942 29.873435-8.454876 48.765389 36.844094 21.736605 52.119488-53.038671 24.377823-111.837706 36.093391-170.123854 36.264734z m-181.600457-45.231348c-27.688944-5.00393-50.279977-25.185259-73.267566-40.630852-39.86926-31.142755-76.820516-68.326672-101.299196-112.778664-10.965436-29.940482 35.215468-51.436404 51.266207-23.934278 34.630377 54.871306 86.021511 96.932507 142.003973 128.340586 18.06446 16.534399 5.689878 48.495479-18.703418 49.003208z m460.793008-70.111743c-28.991502 2.310563-40.452058-38.870996-16.618639-53.928055 43.931657-44.424486 72.543222-101.46309 91.08733-160.413985 15.501178-27.863726 61.947407-6.946018 51.615198 23.173831-20.015717 70.182229-58.0426 135.795478-111.076686 186.11213-4.492189 2.978174-9.637665 4.693333-15.007203 5.056079zM162.072119 488.837609c-27.242533 2.319732-33.008055-27.389235-34.68138-48.241042-8.489259-63.939352-3.105967-130.323361 18.622045-191.181388 13.466828-27.974326 59.909618-12.102953 53.437517 18.261591-20.349236 61.86546-23.714224 128.681555-11.071451 192.474204 0.2063 14.582569-11.763131 27.631638-26.306731 28.686635z m884.500092-53.039243c-24.71077 1.230925-33.602887-26.019057-29.110125-46.220445 1.407427-79.308154-18.910864-158.140098-55.022591-228.505132-10.258857-29.303816 33.805176-50.921227 50.699453-24.873517 45.242237 84.396896 66.817241 181.915639 60.356603 277.496877-2.868148 12.360829-14.235297 21.698784-26.92334 22.102217zM45.726751 416.867443c-25.91476 2.426894-34.584533-25.6821-30.908375-46.508118 2.238359-80.034789 21.909669-160.186482 59.944001-230.775581 17.714322-25.497003 61.068338-2.492795 49.883995 26.46948-35.861876 70.092833-53.789375 148.754578-53.126349 227.404862-2.252112 12.486901-13.141905 22.37671-25.793272 23.409357z m887.832989-67.053339c-25.753159 1.564444-31.56166-26.440827-33.849301-46.155689-11.711556-56.07587-39.843472-107.101393-73.437191-152.727006-13.496627-28.888924 30.668264-54.271315 49.021546-28.249393 45.141379 57.452925 76.117949 126.850067 85.611774 199.433975-0.3318 14.580276-12.773429 27.180643-27.346256 27.698113zM241.280561 161.386252c-26.769761-0.610305-35.875056-37.194231-15.562496-52.715468 46.137924-53.255859 105.629212-95.658028 172.144452-119.269102 30.162829-7.354608 47.386041 38.602805 19.81744 52.881653-60.842554 23.204203-114.993527 62.503272-156.54872 112.563769-5.593031 4.503651-12.679448 6.831407-19.850676 6.538574z m499.054844-89.485637c-26.866034-6.443447-49.844454-25.199013-77.070369-32.245889-39.864102-15.157918-82.832451-17.760166-124.558414-21.989324-28.792077-10.192382-18.98307-57.277569 11.478323-55.128035 72.95926 1.118606 146.229691 20.740061 208.55818 58.934849 20.028325 16.399158 7.528816 50.776244-18.40772 50.428972z m-515.978349-46.598663c-27.608716-0.288247-36.779339-40.381571-13.114398-53.62548 65.818977-53.070762 144.457227-91.094207 227.625489-106.918589 30.94677-2.495661 40.687011 45.609566 11.207266 55.347516-77.033692 16.254748-149.562015 51.613479-210.284799 101.648761-4.764392 2.519729-10.050838 3.719137-15.433558 3.547219z m636.605594-2.891069c-25.370357-2.995367-41.132276-27.888367-63.683768-38.37702-50.258201-32.87224-107.771869-52.378509-165.581235-66.463667-28.925027-13.416972-11.470872-61.272919 19.325756-53.175057 84.313802 17.438109 165.061474 55.034053 230.789908 110.837148 15.555046 17.255877 2.394803 47.054815-20.850661 47.178596z"  horiz-adv-x="1088" />
      
      <glyph glyph-name="intermediate-event-t5" unicode="&#59322;" d="M539.067528 918.012002C281.340165 923.27213 40.844157 711.415484 14.03525 454.850042c-28.330853-216.9857 90.795869-445.856197 289.534249-540.421156 187.661776-94.298805 431.006496-65.900985 586.643311 77.2094 157.169635 137.843961 222.835946 372.401578 150.122553 569.954569-66.853416 194.718018-253.834066 343.017555-460.645798 354.879458-13.514922 0.997078-27.068194 1.551137-40.621464 1.551137z m-5.999637-57.101289c236.329117 8.899289 458.445016-188.166611 476.964215-424.147153 22.743898-208.120181-108.201797-423.72703-307.473631-492.313598-193.710064-71.627025-431.489009-1.993582-548.482489 170.301066-120.077436 168.197015-115.308407 416.471602 20.937483 574.269133 87.202497 105.036563 221.002629 171.380566 358.054422 171.88998z m9.384663-51.469118c-218.620404 6.955503-419.751311-184.982489-423.7007-403.613194-9.63708-197.564439 136.786212-391.445644 332.389694-429.075875 181.239155-39.67361 383.745481 53.435227 464.606634 222.014015 83.628588 164.641993 46.227307 383.743191-96.45952 504.009512-75.605033 66.969609-175.607556 106.554502-276.836108 106.665542z m-2.572253-56.121382c192.72329 5.095283 368.247279-168.340682 365.156453-361.253428 3.406777-178.336641-140.128882-347.829513-319.189578-365.810678-168.115738-22.07422-345.368873 85.726342-393.702519 250.190899-50.663213 156.694565 15.899436 345.426109 161.905467 426.107538 55.980006 32.977966 120.827821 50.870986 185.830177 50.765669z m58.943192-135.600824v-117.768475H334.014133v-222.385487h264.80936v-117.746725c64.363584 76.311916 128.72717 152.629556 193.090755 228.947769l-193.090755 228.952918z"  horiz-adv-x="1079" />
      
      <glyph glyph-name="start-event-none" unicode="&#59323;" d="M533.688453 918.778681C326.880681 919.46556 128.439868 785.837298 49.94823 594.683247c-82.630684-189.294663-39.697336-424.445061 104.844725-572.076929 139.017219-149.640902 368.06426-204.56481 559.892003-134.550215 198.804318 67.698243 345.573862 262.936871 353.552088 473.070098 13.382091 206.482107-108.097364 412.483169-294.103841 502.426415C701.297133 899.899269 619.96223 918.853791 538.575152 918.7374a477.202836 477.202836 0 0 1-4.886699 0.041281z m14.535106-57.319382c202.435945-1.111735 393.094618-147.558479 445.449325-343.456464 55.632574-187.433555-19.616746-404.447035-181.126083-515.459906C644.77586-120.771261 395.981921-111.849867 237.550925 23.272556c-159.629881 127.273201-216.769231 362.690209-134.868427 549.37783C173.667781 745.237503 351.855423 863.592178 538.575152 861.401964c3.218811 0.056189 6.43533 0.074536 9.648407 0.057335z"  horiz-adv-x="1078" />
      
      <glyph glyph-name="send" unicode="&#59324;" d="M101.376 648.192l410.624-232.448 410.624 232.448H101.376z m1.024-86.016v-458.752h821.248V562.176l-411.648-229.376-409.6 229.376z"  horiz-adv-x="1024" />
      
      <glyph glyph-name="start-event-escalati" unicode="&#59325;" d="M539.343574 919.076027c-208.561654 2.828931-409.517764-131.395614-488.627476-324.055286-82.630681-189.294655-39.696761-424.444471 104.844722-572.076334 139.017787-149.640896 368.064819-204.564801 559.891979-134.549062 198.804884 67.697667 345.574421 262.935713 353.552647 473.068932 13.38209 206.482672-108.097933 412.483726-294.104402 502.426395C702.065549 900.237897 620.731223 919.192418 539.343574 919.076027z m0-57.335434c205.996467 3.582892 401.912218-144.391263 455.098287-343.399116 55.632571-187.434121-19.617319-404.447018-181.126649-515.459311C645.544279-120.432592 396.75035-111.511199 238.319358 23.611219c-159.629875 127.273197-216.769796 362.690195-134.868995 549.377808C174.436218 745.576136 352.623853 863.931379 539.343574 861.740593z m0-238.171393c-55.4921-154.422671-90.713257-315.268631-146.205356-469.690729 50.910425 50.611708 95.297225 107.308998 146.205356 157.923573l146.205357-157.923573c-49.662806 156.273459-96.54255 313.416696-146.205357 469.690729z m1.062425-97.181268c27.265866-85.79789 53.004315-172.072238 80.269608-257.869554l-80.269608 86.702643c-22.622269-19.83806-81.370448-95.723227-77.602362-79.249037 28.91426 82.51257 48.044801 168.114373 77.602362 250.415948z"  horiz-adv-x="1078" />
      
      <glyph glyph-name="lane-insert-above" unicode="&#59326;" d="M100.897638 808.424157v-81.320426h44.681553v36.638874h14.298096V808.424157H100.897638z m103.661202 0v-44.681552h89.363105V808.424157H204.55884z m134.044658 0v-44.681552h89.363105V808.424157H338.603498z m134.044657 0v-44.681552h89.363105V808.424157H472.648155z m134.044658 0v-44.681552h89.363105V808.424157h-89.363105z m134.044657 0v-44.681552h89.363105V808.424157h-89.363105z m133.151027 0v-44.681552h11.617204v-36.638874h44.681552V808.424157h-56.298756zM100.897638 682.422179v-84.001319h44.681553V682.422179H100.897638z m784.608063 0v-84.001319h44.681552V682.422179h-44.681552zM101.344454 555.239267v-482.560767h829.289615v482.560767H101.344454z m784.608062-43.65343v-398.355254H144.238744V511.584944l741.713772 0.000893z"  horiz-adv-x="1213" />
      
      <glyph glyph-name="start-event-message" unicode="&#59327;" d="M539.343574 919.076027c-208.561654 2.828931-409.517764-131.395614-488.627476-324.055286-82.630681-189.294655-39.696761-424.444471 104.844722-572.076334 139.017787-149.640896 368.064819-204.564801 559.891979-134.549062 198.804884 67.697667 345.574421 262.935713 353.552647 473.068932 13.38209 206.482672-108.097933 412.483726-294.104402 502.426395C702.065549 900.237897 620.731223 919.192418 539.343574 919.076027z m0-57.335434c205.996467 3.582892 401.912218-144.391263 455.098287-343.399116 55.632571-187.434121-19.617319-404.447018-181.126649-515.459311C645.544279-120.432592 396.75035-111.511199 238.319358 23.611219c-159.629875 127.273197-216.769796 362.690195-134.868995 549.377808C174.436218 745.576136 352.623853 863.931379 539.343574 861.740593zM298.749759 572.224745v-367.002966h481.18763V572.225319h-481.18763z m106.892743-57.337727h267.363155c-47.356775-29.140734-94.718137-93.111598-142.068605-100.091613-41.76313 33.365782-83.529128 66.728698-125.295124 100.091613z m317.028829-33.75509v-218.572422H356.015817V481.1153c61.090905-48.822842 122.18009-97.648551 183.273862-146.467952 61.129893 48.825135 122.254626 97.656577 183.381652 146.48458z"  horiz-adv-x="1078" />
      
      <glyph glyph-name="ad-hoc-marker" unicode="&#59328;" d="M153.6 363.58656c29.865984 70.772736 69.065728 144.50176 136.471552 184.36352 50.065408 29.896704 111.974912 11.47904 157.915136-17.827328 70.752256-43.625984 126.101504-108.463104 195.894272-153.347584 42.15552-24.71168 94.583296-4.463616 125.310976 29.724672 37.069312 43.236352 79.47008 83.979776 101.208064 138.230272v-168.979456c-31.401472-62.29504-71.798272-127.053824-136.392704-157.270528-52.852736-22.75328-114.251776-9.107968-160.012288 23.852032-67.08224 45.045248-116.472832 114.52928-189.365248 150.92736-35.416064 18.434048-80.577024 14.10304-110.249472-13.630976C220.882944 332.266496 190.225408 265.288704 153.6 204.8v158.78656z"  horiz-adv-x="1024" />
      
      <glyph glyph-name="intermediate-event-c13" unicode="&#59329;" d="M538.858139 918.887006c-1.400935 0.001146-2.803017-0.003439-4.20395-0.013183-236.484005 1.940903-459.012543-175.586901-510.964071-406.150752-50.118963-203.089706 32.471424-431.346371 203.494395-552.743344 169.989466-125.645061 416.124675-136.154938 594.090413-20.664364 174.864078 108.673915 276.278811 323.920917 242.969348 527.914008-29.980237 206.988134-192.03069 388.048082-396.370575 435.898837-42.145557 10.547137-85.579124 15.73243-129.01556 15.758798z m-6.008428-57.183824c3.834801 0.015477 7.672468-0.020063 11.51243-0.108337 219.747304 2.218337 425.314441-170.762159 460.727026-387.73912 37.4859-196.001343-63.301165-409.550484-240.866226-502.07467-181.54546-99.911193-426.747476-62.491786-567.708815 90.42221-144.520423 149.160017-172.598163 396.52305-61.230141 572.692336 82.675223 136.413459 237.767431 226.177044 397.565726 226.808154z m9.398417-51.54512c-3.878939 0.005732-7.76017-0.047004-11.641977-0.158207-202.345101 0-387.762048-167.461593-409.498895-368.63791-25.883476-188.519753 92.705894-385.142461 272.601071-448.433307 170.429122-64.40632 378.637055-3.32808 485.022128 145.287958 114.803292 152.027806 108.199867 382.702862-19.779321 525.090929-78.249438 91.104907-196.457621 146.687745-316.703006 146.850537z m-2.576025-56.203055c2.586342-0.004013 5.17211-0.036686 7.758452-0.097446 179.107581 0 342.329682-151.13474 355.998542-329.771712 18.672445-170.162576-98.104423-343.746094-264.37717-387.320673-160.245975-46.74216-346.804191 31.001131-422.725233 180.615706-81.714517 151.212123-39.810283 358.056381 99.939854 460.485704 63.436443 49.047053 143.232411 76.208796 223.405555 76.088421z m-4.562783-113.417834c-98.322244-0.694735-192.083998-65.280472-228.320865-156.650777-37.711746-89.307308-16.863954-199.231976 50.94955-268.517494 65.935083-70.981085 174.575178-97.139131 265.57404-63.872086 95.359875 32.486902 165.414073 126.812698 167.937934 227.674853 5.080396 97.988061-53.809887 194.875551-142.476916 236.488592-33.835101 16.382456-71.390933 24.910733-108.977719 24.860862a226.326654 226.326654 0 0 1-4.68545 0.01605z m8.966786-45.84164c89.82664-0.40125 174.093678-66.79089 195.040636-154.295441 23.329808-85.419198-15.975473-182.818567-92.494378-227.574541-78.129063-49.035015-188.28359-35.96631-252.440562 30.443393-67.704021 65.313719-79.761003 178.317692-27.818074 256.646806 36.787725 58.437444 104.353601 95.421208 173.431616 94.748256 1.428449 0.027514 2.855179 0.037833 4.280762 0.031527z m60.733166-58.509096l-68.730074-124.689512c-21.227259-2.257317-26.270396-34.462769-6.684821-43.051808 12.937439-8.979969 23.070142 5.95684 34.847396 5.442093h105.066107v28.660698H563.873197l66.037115 119.80401-25.10104 13.834519z"  horiz-adv-x="1079" />
      
      <glyph glyph-name="start-event-parallel" unicode="&#59330;" d="M534.454792 919.115128c-206.807353 0.686877-405.247763-132.941114-483.739242-324.095352-82.630516-189.29428-39.697255-424.444202 104.844512-572.075771 139.016938-149.640599 368.063514-204.564395 559.89087-134.549943 198.803916 67.698106 345.573162 262.936338 353.551371 473.06914 13.382063 206.481689-108.097146 412.482335-294.103245 502.425398-72.841084 36.348873-154.164929 55.30049-235.557575 55.185246a477.201871 477.201871 0 0 1-4.886691 0.041282z m14.535077-57.319267c202.435535-1.111732 393.093823-147.557607 445.448424-343.455769 55.632462-187.433176-19.616706-404.446216-181.125717-515.458863-167.770601-123.313367-416.564036-114.39199-574.994712 20.730159-159.629559 127.272944-216.768792 362.689475-134.868154 549.376718C174.229016 745.414908 352.857207 864.053152 539.341483 861.738525a421.695547 421.695547 0 0 0 9.648386 0.057336zM456.778621 618.065708v-146.77842H310.000201v-165.125722h146.77842v-146.77842h165.125723v146.77842h146.77842V471.288435h-146.77842V618.065708H456.778621z m27.520954-27.520953h110.083814v-146.77842h146.77842v-110.083815h-146.77842v-146.77842H484.299575v147.63845H337.521155V443.766335h146.77842V590.544755z"  horiz-adv-x="1078" />
      
      </font>
</defs>
</svg>
